Coordinates
version=1
nRows=24
nColumns=22
inDegrees=yes

Units are S.I. units (second, meters, Newtons, ...)
If the header above contains a line with 'inDegrees', this indicates whether rotational values are in degrees (yes) or radians (no).

endheader
time	pelvis_tilt	pelvis_list	pelvis_rotation	pelvis_tx	pelvis_ty	pelvis_tz	hip_flexion_r	hip_adduction_r	hip_rotation_r	knee_angle_r	ankle_angle_r	subtalar_angle_r	hip_flexion_l	hip_adduction_l	hip_rotation_l	knee_angle_l	ankle_angle_l	subtalar_angle_l	lumbar_extension	lumbar_bending	lumbar_rotation
      4.47000000	     -0.01391453	     -3.19183983	     87.83429159	      0.34884209	      0.87139499	     -0.47585342	     21.71983320	     -3.50818573	      0.38482746	    -27.51927413	     12.54438312	      2.43954142	     17.23468647	    -11.06033181	      1.85143814	    -64.24507558	      4.38658001	      6.72863624	     -3.58711475	      1.02141349	     11.86707643
      4.48000000	      0.01271154	     -3.15972527	     87.71778961	      0.35192388	      0.87256638	     -0.47924571	     21.19974006	     -3.21998625	      0.44285378	    -27.08205537	     12.58683696	      2.19894522	     18.36440835	    -11.53874664	      0.57123015	    -64.81396180	      5.12365756	      4.80310830	     -3.72122284	      1.00601087	     12.62962293
      4.49000000	     -0.02159699	     -3.13488531	     87.56453992	      0.35475757	      0.87379404	     -0.48256429	     20.67957875	     -3.01361826	      0.53052467	    -26.59931316	     12.60584110	      2.00389672	     19.35762378	    -11.85438091	     -0.63723516	    -65.08643102	      5.85732996	      3.29153503	     -3.82842951	      0.94331334	     13.37610423
      4.50000000	     -0.11597250	     -3.11993467	     87.38865343	      0.35730934	      0.87505612	     -0.48577876	     20.17552312	     -2.89782028	      0.61855169	    -26.09563679	     12.61042090	      1.85999434	     20.22707130	    -11.99094504	     -1.74410778	    -65.06978962	      6.56216532	      2.24847427	     -3.91284687	      0.83696808	     14.09511033
      4.51000000	     -0.26307255	     -3.12712485	     87.20940096	      0.35955199	      0.87632123	     -0.48888333	     19.68964506	     -2.86750680	      0.71280810	    -25.55602067	     12.60068852	      1.77207024	     20.99908851	    -11.94493721	     -2.71661192	    -64.77246076	      7.20498159	      1.71571215	     -3.96271597	      0.69771025	     14.75276270
      4.52000000	     -0.43049084	     -3.17204980	     87.05675158	      0.36145997	      0.87751965	     -0.49186711	     19.25246165	     -2.90147895	      0.74017529	    -25.01401096	     12.56746298	      1.74462374	     21.71262749	    -11.74974716	     -3.51367889	    -64.22048973	      7.81625694	      1.66434725	     -3.96627441	      0.56456977	     15.31988746
      4.53000000	     -0.65847237	     -3.22114154	     86.91797598	      0.36307144	      0.87871076	     -0.49473288	     18.82168560	     -3.02778156	      0.78078862	    -24.45378552	     12.54862194	      1.71993688	     22.32327535	    -11.36082896	     -4.14418006	    -63.40144669	      8.31153621	      1.85020130	     -3.96305639	      0.37985800	     15.83391278
      4.54000000	     -0.90959413	     -3.28548276	     86.82718891	      0.36436223	      0.87983895	     -0.49750539	     18.40435520	     -3.21840031	      0.77346647	    -23.88218566	     12.54826729	      1.72754648	     22.85818384	    -10.82823690	     -4.57251309	    -62.34137254	      8.74101848	      2.50297650	     -3.94091269	      0.19295426	     16.21827473
      4.55000000	     -1.12067439	     -3.38893750	     86.79113537	      0.36541852	      0.88082887	     -0.50017479	     18.02903195	     -3.39774367	      0.68009544	    -23.31246390	     12.49988721	      1.76543004	     23.36080206	    -10.25018613	     -4.78770297	    -61.08826246	      9.15792457	      3.49557407	     -3.87970103	      0.06335339	     16.48540632
      4.56000000	     -1.36459002	     -3.49532438	     86.79266353	      0.36626298	      0.88174055	     -0.50277273	     17.66796399	     -3.63401104	      0.57098767	    -22.76213685	     12.52408782	      1.79219233	     23.76890763	     -9.55912876	     -4.83062750	    -59.62472726	      9.51262369	      4.49872227	     -3.81405591	     -0.09830269	     16.66028650
      4.57000000	     -1.55421208	     -3.62015538	     86.81955120	      0.36698696	      0.88253588	     -0.50530336	     17.33125092	     -3.82513285	      0.41780421	    -22.22271239	     12.48641089	      1.83009356	     24.10665022	     -8.89127680	     -4.70577236	    -58.00080719	      9.89062006	      5.68631074	     -3.72993326	     -0.19672863	     16.78050647
      4.58000000	     -1.73435365	     -3.75019292	     86.86558203	      0.36764865	      0.88323860	     -0.50781514	     17.00471597	     -4.01093046	      0.24780095	    -21.69726205	     12.47448211	      1.85804385	     24.34938809	     -8.23301155	     -4.47773579	    -56.22087300	     10.25258544	      6.82303499	     -3.63404042	     -0.29325163	     16.82212114
      4.59000000	     -1.89516463	     -3.87288960	     86.91054060	      0.36830559	      0.88387185	     -0.51030266	     16.68054232	     -4.16946833	      0.10233766	    -21.19261731	     12.48103872	      1.87954429	     24.48179620	     -7.61830468	     -4.16846319	    -54.30717947	     10.59883885	      7.86509612	     -3.54249986	     -0.38166738	     16.83258343
      4.60000000	     -2.03544789	     -3.98982808	     86.93731690	      0.36901750	      0.88443490	     -0.51280163	     16.35847191	     -4.29422668	     -0.01675265	    -20.70162613	     12.50898778	      1.89257450	     24.50623913	     -7.08967831	     -3.85107038	    -52.28644171	     10.91121042	      8.76080673	     -3.44568515	     -0.46426476	     16.82114175
      4.61000000	     -2.14049879	     -4.10611584	     86.92500970	      0.36983428	      0.88492282	     -0.51529223	     16.05733471	     -4.35916504	     -0.08342232	    -20.24135125	     12.50204892	      1.89380280	     24.43726354	     -6.68220689	     -3.56269444	    -50.19301442	     11.20421884	      9.48460597	     -3.34103361	     -0.52762334	     16.83125130
      4.62000000	     -2.22709031	     -4.22567740	     86.87231677	      0.37074090	      0.88533260	     -0.51776652	     15.79553990	     -4.38580578	     -0.10343365	    -19.83366724	     12.46092820	      1.86845492	     24.29293354	     -6.38101828	     -3.33959396	    -48.05755878	     11.45265471	      9.86712610	     -3.22198755	     -0.58871294	     16.86095054
      4.63000000	     -2.26263641	     -4.34131469	     86.76397108	      0.37178654	      0.88566978	     -0.52026216	     15.52766902	     -4.32969781	     -0.03240768	    -19.41569504	     12.44687907	      1.82336622	     24.07688287	     -6.23759697	     -3.23257013	    -45.92433855	     11.69083369	     10.05900792	     -3.09267920	     -0.60964982	     16.91418355
      4.64000000	     -2.26802850	     -4.45175111	     86.61694519	      0.37289205	      0.88594238	     -0.52276270	     15.27162696	     -4.22793875	      0.08431875	    -19.02289892	     12.43423211	      1.74562951	     23.80263808	     -6.20044941	     -3.23201018	    -43.81778780	     11.89718702	      9.98711388	     -2.95473812	     -0.60753032	     16.98139224
      4.65000000	     -2.24493243	     -4.55221151	     86.42875070	      0.37405222	      0.88616299	     -0.52526827	     15.01839475	     -4.08397606	      0.24420675	    -18.64771660	     12.41799864	      1.63271885	     23.47257975	     -6.25183257	     -3.33957060	    -41.76121928	     12.06916742	      9.63947330	     -2.81373069	     -0.58424411	     17.06198076
      4.66000000	     -2.19329453	     -4.64812173	     86.24010793	      0.37515123	      0.88631325	     -0.52777837	     14.76387021	     -3.91434521	      0.40424092	    -18.28542264	     12.44429253	      1.45648703	     23.11459312	     -6.34834178	     -3.49471586	    -39.78936433	     12.21670212	      8.89475615	     -2.66427378	     -0.52960182	     17.09583571
      4.67000000	     -2.12138135	     -4.76420075	     86.01624606	      0.37623997	      0.88636711	     -0.53026592	     14.55381786	     -3.71864387	      0.58878197	    -17.95335719	     12.43016001	      1.30959879	     22.75313627	     -6.48511712	     -3.71647172	    -37.91299844	     12.28734486	      8.10834765	     -2.47811435	     -0.45503478	     17.14488361
      4.68000000	     -2.02630751	     -4.87912902	     85.78389083	      0.37724945	      0.88634334	     -0.53272876	     14.35995811	     -3.50339821	      0.79478023	    -17.65613855	     12.45881185	      1.18213858	     22.37348357	     -6.62690804	     -3.91904049	    -36.14491099	     12.27595004	      7.30238584	     -2.28348581	     -0.35229517	     17.15763439
      4.69000000	     -1.92168977	     -5.00683394	     85.55289575	      0.37812461	      0.88623563	     -0.53516332	     14.19582668	     -3.29017393	      0.99277638	    -17.38606232	     12.48545593	      1.07849465	     21.99375243	     -6.74255877	     -4.06774573	    -34.49031442	     12.15733500	      6.53474182	     -2.06482125	     -0.23222654	     17.12884823
      4.70000000	     -1.80978882	     -5.15772447	     85.34464925	      0.37883615	      0.88602029	     -0.53757463	     14.06973693	     -3.08738643	      1.14631384	    -17.14456367	     12.53725431	      0.99580266	     21.63100969	     -6.81514704	     -4.09990535	    -32.95474466	     11.92720285	      5.81433524	     -1.80850284	     -0.09825869	     17.03705471
